# xmcd CD database file
#
# Track frame offsets:
#	150
#	21040
#	39184
#	55632
#	74420
#	94422
#	110982
#	141187
#	161395
#	176747
#	191982
#	204878
#	229887
#
# Disc length: 3523 seconds
#
# Revision: 7
# Processed by: cddbd v1.5.2PL0 Copyright (c) Steve Scherf et al.
# Submitted via: CDex 1.70beta2
#
DISCID=b60dc10d
DTITLE=TOM RIEPL - PLAY
DYEAR=2012
DGENRE=Blues
TTITLE0=TOM RIEPL - CRAWFISH DANCE
TTITLE1=TOM RIEPL - SUNSET SHUFFLE
TTITLE2=TOM RIEPL - GEORGIE'S MOOD
TTITLE3=TOM RIEPL - TEXAS RAIN
TTITLE4=TOM RIEPL - MRS. HIPPIE BLUES
TTITLE5=TOM RIEPL - BAD IS BAD
TTITLE6=TOM RIEPL - ON THE PIER
TTITLE7=TOM RIEPL - SNOW BREEZE
TTITLE8=TOM RIEPL - FAIR ENOUGH
TTITLE9=TOM RIEPL - BLUES BY THE BAY
TTITLE10=TOM RIEPL - AUTOMOTIVE
TTITLE11=TOM RIEPL - DESERT HIGHWAY
TTITLE12=TOM RIEPL - WOODSTOCK JAM
EXTD=YEAR: 2012
EXTT0=
EXTT1=
EXTT2=
EXTT3=
EXTT4=
EXTT5=
EXTT6=
EXTT7=
EXTT8=
EXTT9=
EXTT10=
EXTT11=
EXTT12=
PLAYORDER=
